<svg width="87" height="86" viewBox="0 0 87 86" fill="none" xmlns="http://www.w3.org/2000/svg">
<path d="M82.3673 43C82.3673 64.5631 65.0044 82 43.6395 82C22.2746 82 4.91162 64.5631 4.91162 43C4.91162 21.4369 22.2746 4 43.6395 4C65.0044 4 82.3673 21.4369 82.3673 43Z" fill="#BABF75" stroke="#282560" stroke-width="8"/>
<path d="M66.285 15.382L44.1736 32.6868V43.4923C52.0937 40.657 69.6178 33.6482 73.976 49.9916C78.3343 66.335 58.5942 76.9101 48.9805 70.1805" stroke="#4E5273" stroke-width="5" stroke-linecap="round" stroke-linejoin="round"/>
<path d="M13.4094 26.9186C14.0524 23.0147 19.3434 14.4207 27.8301 14.4207C38.4384 14.4207 44.5427 25.1417 40.6852 32.9494C37.5991 39.1955 22.4044 58.5273 15.3322 66.335L48.019 58.644" stroke="#4E5273" stroke-width="5" stroke-linecap="round" stroke-linejoin="round"/>
</svg>
