<svg width="86" height="86" viewBox="0 0 86 86" fill="none" xmlns="http://www.w3.org/2000/svg">
<path d="M81.9115 43C81.9115 64.5631 64.5486 82 43.1837 82C21.8188 82 4.45581 64.5631 4.45581 43C4.45581 21.4369 21.8188 4 43.1837 4C64.5486 4 81.9115 21.4369 81.9115 43Z" fill="#B1D5E1" stroke="#878CA8" stroke-width="8"/>
<path d="M32.995 29.198C33.5616 28.698 34.1783 28.223 34.845 27.773C35.5283 27.323 36.2616 26.9314 37.045 26.598C37.8283 26.2647 38.6783 26.0064 39.595 25.823C40.5116 25.623 41.5033 25.523 42.57 25.523C44.02 25.523 45.3366 25.723 46.52 26.123C47.72 26.523 48.745 27.098 49.595 27.848C50.445 28.5814 51.1033 29.473 51.57 30.523C52.0366 31.573 52.27 32.748 52.27 34.048C52.27 35.3147 52.0866 36.4147 51.72 37.348C51.3533 38.2647 50.895 39.0647 50.345 39.748C49.795 40.4314 49.1866 41.023 48.52 41.523C47.87 42.023 47.2533 42.498 46.67 42.948C46.0866 43.3814 45.5783 43.8147 45.145 44.248C44.7283 44.6647 44.4783 45.1397 44.395 45.673L43.82 49.323H39.595L39.17 45.248C39.07 44.4647 39.1783 43.7814 39.495 43.198C39.8283 42.598 40.2616 42.0564 40.795 41.573C41.345 41.073 41.9533 40.598 42.62 40.148C43.2866 39.6814 43.9116 39.1814 44.495 38.648C45.0783 38.098 45.5616 37.4897 45.945 36.823C46.345 36.1397 46.545 35.3314 46.545 34.398C46.545 33.798 46.4283 33.2647 46.195 32.798C45.9783 32.3147 45.67 31.9064 45.27 31.573C44.87 31.223 44.3866 30.9564 43.82 30.773C43.27 30.5897 42.67 30.498 42.02 30.498C41.07 30.498 40.2616 30.6064 39.595 30.823C38.945 31.023 38.3866 31.2564 37.92 31.523C37.47 31.773 37.0866 32.0064 36.77 32.223C36.4533 32.423 36.17 32.523 35.92 32.523C35.32 32.523 34.8866 32.273 34.62 31.773L32.995 29.198ZM37.72 58.673C37.72 58.1564 37.8116 57.6647 37.995 57.198C38.195 56.7314 38.4616 56.3314 38.795 55.998C39.1283 55.6647 39.5283 55.398 39.995 55.198C40.4616 54.998 40.9616 54.898 41.495 54.898C42.0283 54.898 42.52 54.998 42.97 55.198C43.4366 55.398 43.8366 55.6647 44.17 55.998C44.52 56.3314 44.795 56.7314 44.995 57.198C45.195 57.6647 45.295 58.1564 45.295 58.673C45.295 59.2064 45.195 59.7064 44.995 60.173C44.795 60.623 44.52 61.0147 44.17 61.348C43.8366 61.6814 43.4366 61.9397 42.97 62.123C42.52 62.323 42.0283 62.423 41.495 62.423C40.9616 62.423 40.4616 62.323 39.995 62.123C39.5283 61.9397 39.1283 61.6814 38.795 61.348C38.4616 61.0147 38.195 60.623 37.995 60.173C37.8116 59.7064 37.72 59.2064 37.72 58.673Z" fill="#878CA8"/>
</svg>
