<svg width="86" height="86" viewBox="0 0 86 86" fill="none" xmlns="http://www.w3.org/2000/svg">
<path d="M81.4557 43C81.4557 64.5631 64.0928 82 42.7279 82C21.363 82 4 64.5631 4 43C4 21.4369 21.363 4 42.7279 4C64.0928 4 81.4557 21.4369 81.4557 43Z" fill="#B1D5E1" stroke="#282560" stroke-width="8"/>
<path d="M23.9523 41.3498C24.1695 42.2608 25.0597 42.8112 25.8749 43.2589C28.6628 44.79 33.4906 46.7862 34.4442 50.0558C34.898 51.6102 36.7072 52.0385 37.1744 53.4262C37.3955 54.0852 37.1225 54.8778 37.4878 55.467C38.2261 56.6551 39.3316 57.7036 36.9937 57.6823C35.5094 57.6687 33.8828 57.0563 32.5504 56.4496C29.8394 55.217 27.4803 53.2363 25.6058 50.9222C24.6098 49.6915 23.7081 48.3077 23.4697 46.7359C23.2313 45.166 23.8062 43.381 25.1789 42.6038C26.4825 41.8654 28.1629 42.2026 29.428 43.005C30.8969 43.9353 31.8352 45.3908 33.0887 46.5556C34.3019 47.6836 35.8189 48.4123 37.3532 48.9821C39.0817 49.6217 40.8774 50.0539 42.6751 50.4376C48.6065 51.7052 54.7032 52.3893 60.5789 50.4687C62.688 49.7787 64.628 48.6585 66.7256 47.9375C67.3466 47.7243 67.9619 47.4878 68.5867 47.4491C69.4961 47.3929 70.2344 48.1894 71.1419 48.1003C71.0612 46.8638 69.3308 46.2649 68.3579 46.0149C66.789 45.6118 65.1317 45.7707 63.5936 46.2281C63.3206 46.3095 63.0437 46.4044 62.8245 46.5847C62.6053 46.7669 62.4496 47.0556 62.4996 47.3367C62.5592 47.6778 62.8995 47.9123 63.2398 47.9549C64.6241 48.1313 66.9601 46.9413 67.1351 45.4664C67.3428 43.7105 65.2663 43.2027 64.0416 42.6057C61.7575 41.4933 60.2328 39.3614 58.4928 37.5822C51.7769 30.7135 36.2554 27.1978 29.4818 36.0026C27.986 37.9465 25.8845 41.5747 23.1544 41.2956C20.9933 41.0746 18.7919 40.3304 16.5885 40.0998C14.1064 39.842 16.029 36.3166 17.2537 35.6014C19.3417 34.3843 22.4564 34.58 24.606 35.3611C29.378 37.0938 31.9448 42.0902 35.9304 44.945C37.5724 46.1215 39.4162 46.9762 41.2639 47.7863C43.4153 48.7302 45.4168 49.6973 47.8393 49.5229C48.6065 49.4686 49.4236 49.2883 49.9485 48.7205C50.4734 48.1526 50.5195 47.0963 49.8677 46.6816C49.2467 46.2862 48.3431 46.7339 48.1008 47.4355C47.8586 48.1352 48.1547 48.9337 48.6526 49.4783C49.1506 50.0229 49.8216 50.3679 50.4772 50.7012C52.148 51.5501 53.8111 52.7556 55.5626 53.401C56.8047 53.8584 58.2851 54.5018 59.1888 55.5155C60.0597 56.4923 60.5558 57.4633 62.1612 57.0505C64.0396 56.5679 63.7166 54.7848 63.9262 53.2537C64.0127 52.6258 64.1588 51.9339 64.0127 51.3059C63.8128 50.4473 62.9437 50.3117 62.3362 49.8388" stroke="#282560" stroke-width="4" stroke-miterlimit="10" stroke-linecap="round" stroke-linejoin="round"/>
</svg>
