<svg width="86" height="86" viewBox="0 0 86 86" fill="none" xmlns="http://www.w3.org/2000/svg">
<path d="M81.4557 43C81.4557 64.5631 64.0927 82 42.7279 82C21.363 82 4 64.5631 4 43C4 21.4369 21.363 4 42.7279 4C64.0927 4 81.4557 21.4369 81.4557 43Z" fill="#EAEAB9" stroke="#9AA049" stroke-width="8"/>
<path d="M30.7415 52.6877C29.2315 52.1859 27.6146 51.8147 26.2847 50.9131C25.4556 50.3508 24.2628 49.4332 23.2503 49.3583C21.9124 49.2596 20.4327 49.532 19.0901 49.6116C18.6962 49.6355 18.2928 49.6578 17.9181 49.5431C17.2978 49.3535 16.8593 48.8279 16.3777 48.3977C15.3014 47.4372 14.2219 47.3097 12.8633 47.829C12.3148 48.0393 11.8109 48.4089 11.5366 48.9218C12.0836 48.5921 12.7708 48.573 13.4039 48.6749C14.0369 48.7769 14.6476 48.9887 15.2807 49.0843C16.1242 49.2134 16.9932 49.1305 17.8001 48.8565C18.6117 48.5809 19.047 47.9278 19.6976 47.4117C21.0354 46.3539 22.8724 46.1532 24.5243 46.0401C25.2084 45.9923 25.8335 46.0656 26.4904 45.8314C27.3914 45.5112 27.5699 45.1448 27.9686 44.3993C27.7772 44.7577 27.2765 44.7768 26.8667 44.8023C26.39 44.8326 25.91 44.9361 25.497 45.1719C24.9293 45.4953 24.3553 46.3985 24.1958 47.0246C24.0476 47.6044 24.4924 48.2002 25.0473 48.4408C25.6023 48.6813 26.2337 48.6558 26.8396 48.6271C28.3162 48.5539 29.7928 48.4806 31.2693 48.4089C32.6183 48.342 34.0263 47.5614 35.1393 46.8669C36.6653 45.9158 37.9601 44.7068 39.4749 43.7605C41.8764 42.2599 44.4851 41.0126 46.6441 39.2093C48.776 37.4267 50.656 35.2204 52.9889 33.6911C54.6727 32.5872 56.6117 31.9325 58.5348 31.3144C60.9473 30.5386 63.3711 29.7548 65.8219 29.1001C66.6734 28.8723 70.5195 28.31 69.5659 30.1881C69.0254 31.2507 67.0386 32.1778 66.0531 32.8548C64.1125 34.1897 63.1207 36.6111 61.0972 37.7644C59.9491 38.4192 58.5555 38.4622 57.3006 38.8827C56.1876 39.2555 55.191 39.9309 54.4319 40.8119C53.6634 41.7039 52.7752 42.5196 51.5027 42.5084C51.761 41.5383 52.8198 41.3296 53.6984 41.414C53.5199 41.876 53.169 42.2583 52.7672 42.5546C52.0018 43.1201 51.364 43.4961 50.7198 44.2161C50.0565 44.9569 49.5956 45.841 49.264 46.7665C48.8079 48.0409 48.5225 49.3743 47.9931 50.6216C47.435 51.9326 46.5851 53.43 45.4418 54.3349C45.2265 54.5053 44.9937 54.6567 44.8088 54.859C44.5823 55.1059 44.4404 55.4149 44.2842 55.7096C43.8696 56.4934 43.3067 57.3759 42.6051 57.9446C42.3308 58.1676 42.0007 58.2552 41.7392 58.4958C41.4426 58.7682 41.2433 59.1569 41.0265 59.4882C40.7809 59.8626 40.505 60.2338 40.1207 60.4695C39.7365 60.7053 39.2182 60.777 38.8355 60.5412C38.7143 60.4663 38.6059 60.3564 38.574 60.2178C38.5437 60.0872 38.5868 59.9502 38.6362 59.8244C38.7383 59.5647 38.9519 59.3369 39.0444 59.0852C39.1385 58.8271 39.105 58.5101 39.1688 58.2377C39.3155 57.6212 39.5914 57.0414 39.88 56.4743C40.6772 54.9099 41.5909 53.403 42.6083 51.9677C43.3481 50.9242 44.2985 49.8314 45.5869 49.7311C45.7177 49.7215 45.8644 49.7263 45.9616 49.8123C46.0366 49.8792 46.0685 49.9796 46.0892 50.0784C46.2471 50.8653 45.8149 51.657 45.276 52.2608C43.7308 53.9876 41.1365 54.7252 38.8993 54.072C38.2392 53.8793 37.6093 53.575 36.9284 53.4523C36.3161 53.3408 35.8202 53.5654 35.2159 53.5368C33.6963 53.4699 32.1766 53.1656 30.7415 52.6877Z" stroke="#9AA049" stroke-width="4" stroke-miterlimit="10" stroke-linecap="round" stroke-linejoin="round"/>
<path d="M46.3044 53.5384C47.6152 53.7216 48.6134 53.1337 49.8157 52.839C51.0275 52.5411 52.3048 52.624 53.531 52.3994C55.3663 52.0648 56.9561 51.0373 58.4423 49.9541C60.5423 48.4216 62.3888 46.553 63.8861 44.4455C64.9353 42.9672 66.0244 41.414 66.9524 39.864C67.7051 38.6071 68.6203 37.2738 69.2454 35.9373C69.4846 35.4259 69.5675 34.8604 69.7796 34.3411C70.1942 33.3231 70.6231 32.576 70.5163 31.4641C70.4764 31.0372 70.14 30.8476 69.77 30.6198C69.6584 30.5513 69.5229 30.615 69.4702 30.4972" stroke="#9AA049" stroke-width="4" stroke-miterlimit="10" stroke-linecap="round" stroke-linejoin="round"/>
</svg>
